<svg xmlns="http://www.w3.org/2000/svg" data-name="Layer 1" viewBox="0 0 100 125" x="0px" y="0px"><title>Artboard 12</title><path d="M60.84,42.64a16.55,16.55,0,1,0-21.69,0L23.78,88.27a3.89,3.89,0,0,0,3.68,5.13H72.53a3.89,3.89,0,0,0,3.68-5.13Zm-14.69,3.6a16,16,0,0,0,7.7,0l2.64,7.82h-13Zm-5.26,15.6H59.11l2.68,8H38.21Zm-8,23.79,2.71-8.05H64.41l2.71,8.05ZM80.72,19.36a20.34,20.34,0,0,1,0,21.56,3.78,3.78,0,0,1-5.85.57l-.21-.21a3.72,3.72,0,0,1-.45-4.61,12.55,12.55,0,0,0,0-13.06A3.72,3.72,0,0,1,74.65,19l.21-.21A3.78,3.78,0,0,1,80.72,19.36ZM91.65,52.29a3.81,3.81,0,0,1-5.67.32l-.12-.12a3.78,3.78,0,0,1-.31-5,28,28,0,0,0,0-34.63,3.78,3.78,0,0,1,.27-5L86,7.76A3.8,3.8,0,0,1,91.69,8,35.88,35.88,0,0,1,91.65,52.29ZM25.13,41.54A3.78,3.78,0,0,1,19.28,41a20.34,20.34,0,0,1,0-21.56,3.78,3.78,0,0,1,5.85-.57l.21.21a3.72,3.72,0,0,1,.45,4.61,12.55,12.55,0,0,0,0,13.06,3.72,3.72,0,0,1-.45,4.61ZM14.45,12.85a28,28,0,0,0,0,34.63,3.78,3.78,0,0,1-.27,5l-.11.11a3.8,3.8,0,0,1-5.71-.27A35.88,35.88,0,0,1,8.35,8,3.81,3.81,0,0,1,14,7.72l.12.12A3.78,3.78,0,0,1,14.45,12.85Z"/></svg>
