<svg xmlns="http://www.w3.org/2000/svg" data-name="Layer 1" viewBox="0 0 100 125" x="0px" y="0px"><title>135all</title><path d="M50,7.24c-15.31,0-41.21,3.13-41.21,14.85V78.43A4,4,0,0,0,9,79.72c2.53,10.24,26.49,13,41,13,15.12,0,40.57-3.06,41.18-14.44,0-.1,0-.19,0-.29V22.09C91.21,10.37,65.31,7.24,50,7.24ZM83.21,59.16c-1.27,2.48-13.58,7-33.21,7s-31.94-4.51-33.21-7V50.1c8.88,4.13,23.28,5.45,33.21,5.45s24.33-1.32,33.21-5.45Zm0-18.61c-1.27,2.48-13.58,7-33.21,7s-31.94-4.51-33.21-7V31.49c8.88,4.13,23.28,5.45,33.21,5.45s24.33-1.32,33.21-5.45ZM50,15.24c19.26,0,31.47,4.34,33.13,6.85C81.47,24.6,69.26,28.94,50,28.94S18.53,24.6,16.87,22.09C18.53,19.58,30.74,15.24,50,15.24Zm0,69.52c-19.63,0-31.94-4.51-33.21-7V68.7c8.88,4.13,23.28,5.45,33.21,5.45s24.33-1.32,33.21-5.45v9.06C81.94,80.25,69.63,84.76,50,84.76Z"/></svg>
