<svg xmlns:dc="http://purl.org/dc/elements/1.1/" xmlns:cc="http://creativecommons.org/ns#" xmlns:rdf="http://www.w3.org/1999/02/22-rdf-syntax-ns#" xmlns:svg="http://www.w3.org/2000/svg" xmlns="http://www.w3.org/2000/svg" xmlns:sodipodi="http://sodipodi.sourceforge.net/DTD/sodipodi-0.dtd" xmlns:inkscape="http://www.inkscape.org/namespaces/inkscape" version="1.1" x="0px" y="0px" viewBox="0 0 100 125"><g transform="translate(0,-952.36218)"><path style="color:#000000;enable-background:accumulate;" d="m 13,976.36216 c -0.8657,0 -1.6955,0.1728 -2.4375,0.5 l 37.5,31.96884 c 0.921,0.7848 2.954,0.7848 3.875,0 l 37.5,-31.96884 c -0.742,-0.3272 -1.5718,-0.5 -2.4375,-0.5 l -74,0 z m -5.3438002,3.2812 c -0.4126,0.815 -0.6562,1.7395 -0.6562,2.7188 l 0,40.00004 c 0,3.324 2.676,6 6.0000002,6 l 74,0 c 3.324,0 6,-2.676 6,-6 l 0,-40.00004 c 0,-0.9793 -0.2436,-1.90381 -0.6562,-2.7188 l -37.8126,32.21884 c -2.5941,2.2105 -6.4683,2.2105 -9.0624,0 L 7.6561998,979.64336 z" fill="#000000" stroke="none" marker="none" visibility="visible" display="inline" overflow="visible"/></g></svg>
