<svg xmlns="http://www.w3.org/2000/svg" xmlns:xlink="http://www.w3.org/1999/xlink" version="1.1" x="0px" y="0px" viewBox="0 0 100 125" enable-background="new 0 0 100 100" xml:space="preserve"><path fill="#000000" d="M86.747,32.453h-3.854c-1.797,0-3.254,1.457-3.254,3.254v2.252h-1.861l-9.391-8.705V29.2h-0.059l-0.064-0.06  l-0.056,0.06H55.223H54.7v-2.814h10.596v-3.754H31.092v3.754h10.596V29.2H41.36H28.151c-1.429,0-2.588,1.457-2.588,3.253V36.3  h-6.141c-1.766,0-3.197,1.947-3.197,4.351v4.252h-2.472V34.307H10V68.51h3.754V57.916h2.472v7.16c0,2.402,1.432,4.35,3.197,4.35  h6.787l8.094,7.83v0.053h0.056l0.062,0.062l0.054-0.062H46.92h13.286h12.659c1.369,0,2.48-1.457,2.48-3.254v-5.504h4.293v4.004  c0,1.797,1.457,3.252,3.254,3.252h3.854c1.797,0,3.253-1.455,3.253-3.252V35.707C90,33.91,88.544,32.453,86.747,32.453z   M46.324,65.941l4.209-11.15H39.157l7.613-13.975h5.598l-5.026,9.228h10.262L46.324,65.941z"/></svg>
