<svg xmlns="http://www.w3.org/2000/svg" xmlns:xlink="http://www.w3.org/1999/xlink" version="1.1" x="0px" y="0px" viewBox="0 0 100 125" enable-background="new 0 0 100 100" xml:space="preserve"><polygon points="14.398,59.605 16.884,54.25 11.529,51.763 12.352,54.013 5.627,56.463 6.856,59.824 13.576,57.357 "/><rect x="-0.34" y="48.582" transform="matrix(0.3435 0.9392 -0.9392 0.3435 63.7656 13.2291)" width="45.521" height="7.284"/><rect x="36.156" y="26.774" width="7.283" height="45.518"/><rect x="57.399" y="26.774" width="7.283" height="45.519"/><rect x="46.778" y="26.774" width="7.284" height="45.519"/><polygon points="91.84,45.798 94.326,40.443 88.973,37.956 89.795,40.206 83.07,42.655 84.299,46.017 91.018,43.551 "/><rect x="55.438" y="43.25" transform="matrix(-0.3435 -0.9392 0.9392 -0.3435 61.022 136.4384)" width="45.521" height="7.283"/></svg>
