<svg xmlns="http://www.w3.org/2000/svg" data-name="Layer 1" viewBox="0 0 100 125" x="0px" y="0px"><title>Artboard 9</title><path d="M69.92,72.31c2.33-5.09,1.69-10.78.92-14.23q-.77-3.46-1.37-6.95c-2-11.89-8.74-16.82-8.74-16.82Q63.15,26,66.32,17.87c1-2.64,1.9-5.26,1.54-5.82-2.4-.42-11.6,8.29-11.6,8.29.33-2-.25-5.22-.75-7.41a4.19,4.19,0,0,0-6.42-2.56l-.16.11c-3.79,2.7-3.49,5.83-3.67,12.62-.11,4.13-.89,6.41-1.48,7.57h0l-.36.65a2.45,2.45,0,0,1-.3.37h.09l0,.08c-.88,1-8.3,9.5-9,16.21l-3.57,6.44a16.51,16.51,0,0,0-2,9.89c0,.33.07.63.12.91.26,1.61.52,3.23.67,4.86.52,5.82,4.22,11,4.22,11a7.9,7.9,0,0,0-1.74,4.49,3,3,0,0,0,3,3l2.4-.07a5,5,0,0,0,4.82-4.94v-.49c.18,1.6,1,4.2,4.42,6.37,3.74,2.4,4.58-.78,4.75-2.83a3.54,3.54,0,0,0,3.47,2.83h2a1.73,1.73,0,0,0,1.68-1.33l1.3-5.43s1.35,4.06,6.49,2.84,0-6.63,0-6.63C68,77.72,69.92,72.31,69.92,72.31ZM40.13,50.43A6.89,6.89,0,0,1,38,51.69a3.64,3.64,0,0,0,0,1.64.29.29,0,0,1-.18.36h-.09a.28.28,0,0,1-.27-.2,4,4,0,0,1-.09-1.68h-.26a1.9,1.9,0,0,1-.49-.06,2,2,0,0,1-1.35-1.47.29.29,0,0,1,.54-.18,1.48,1.48,0,0,0,1,1.1c1,.27,2.48-.79,3-1.22a.29.29,0,0,1,.38.43Zm8.4-8.09s-.06-4,3.19-3C51.72,39.34,52.8,43.67,48.54,42.34Z"/></svg>
